{
  "accessors": [
    {
      "bufferView": 1,
      "componentType": 5126,
      "count": 10680,
      "max": [
        22.29145050048828,
        4.115789890289307,
        11.124730110168457
      ],
      "min": [
        -13.342180252075195,
        -5.446849822998047,
        -1.495519995689392
      ],
      "type": "VEC3"
    },
    {
      "bufferView": 1,
      "byteOffset": 128160,
      "componentType": 5126,
      "count": 10680,
      "max": [
        0.9996224641799927,
        0.9999821186065674,
        0.9998052716255188
      ],
      "min": [
        -0.9996485114097595,
        -0.9999731779098511,
        -0.9998689889907837
      ],
      "type": "VEC3"
    },
    {
      "bufferView": 1,
      "byteOffset": 256320,
      "componentType": 5126,
      "count": 10680,
      "max": [
        0.0,
        0.0,
        0.0
      ],
      "min": [
        0.0,
        0.0,
        0.0
      ],
      "type": "VEC3"
    },
    {
      "bufferView": 1,
      "byteOffset": 384480,
      "componentType": 5126,
      "count": 10680,
      "max": [
        0.008709907531738281,
        0.00868988037109375,
        0.00858999788761139
      ],
      "min": [
        -0.008709907531738281,
        -0.00868988037109375,
        -0.008589982986450195
      ],
      "type": "VEC3"
    },
    {
      "bufferView": 1,
      "byteOffset": 512640,
      "componentType": 5126,
      "count": 10680,
      "max": [
        0.034920692443847656,
        0.03483009338378906,
        0.03440000116825104
      ],
      "min": [
        -0.03491973876953125,
        -0.03483009338378906,
        -0.034399986267089844
      ],
      "type": "VEC3"
    },
    {
      "bufferView": 1,
      "byteOffset": 640800,
      "componentType": 5126,
      "count": 10680,
      "max": [
        0.07871055603027344,
        0.07850980758666992,
        0.07745999097824097
      ],
      "min": [
        -0.07870006561279297,
        -0.07851028442382813,
        -0.07745999097824097
      ],
      "type": "VEC3"
    },
    {
      "bufferView": 1,
      "byteOffset": 768960,
      "componentType": 5126,
      "count": 10680,
      "max": [
        0.14004039764404297,
        0.1396799087524414,
        0.13781999051570892
      ],
      "min": [
        -0.1400299072265625,
        -0.1396799087524414,
        -0.1378200203180313
      ],
      "type": "VEC3"
    },
    {
      "bufferView": 1,
      "byteOffset": 897120,
      "componentType": 5126,
      "count": 10680,
      "max": [
        0.21892070770263672,
        0.2182598114013672,
        0.21543999016284943
      ],
      "min": [
        -0.2189197540283203,
        -0.2182598114013672,
        -0.21543000638484955
      ],
      "type": "VEC3"
    },
    {
      "bufferView": 1,
      "byteOffset": 1025280,
      "componentType": 5126,
      "count": 10680,
      "max": [
        0.3145904541015625,
        0.31475019454956055,
        0.30952998995780945
      ],
      "min": [
        -0.3145895004272461,
        -0.31474995613098145,
        -0.30952000617980957
      ],
      "type": "VEC3"
    },
    {
      "bufferView": 1,
      "byteOffset": 1153440,
      "componentType": 5126,
      "count": 10680,
      "max": [
        0.42559051513671875,
        0.4277501106262207,
        0.4211599826812744
      ],
      "min": [
        -0.42558956146240234,
        -0.4277498722076416,
        -0.4211599826812744
      ],
      "type": "VEC3"
    },
    {
      "bufferView": 1,
      "byteOffset": 1281600,
      "componentType": 5126,
      "count": 10680,
      "max": [
        0.5552997589111328,
        0.5565600395202637,
        0.5478899478912354
      ],
      "min": [
        -0.5552997589111328,
        -0.5565598011016846,
        -0.5478899478912354
      ],
      "type": "VEC3"
    },
    {
      "bufferView": 1,
      "byteOffset": 1409760,
      "componentType": 5126,
      "count": 10680,
      "max": [
        0.7005500793457031,
        0.7008299827575684,
        0.6905801296234131
      ],
      "min": [
        -0.7005500793457031,
        -0.7008399963378906,
        -0.6905701160430908
      ],
      "type": "VEC3"
    },
    {
      "bufferView": 1,
      "byteOffset": 1537920,
      "componentType": 5126,
      "count": 10680,
      "max": [
        0.8570003509521484,
        0.8578999042510986,
        0.8490900993347168
      ],
      "min": [
        -0.8570108413696289,
        -0.8578999042510986,
        -0.8490900993347168
      ],
      "type": "VEC3"
    },
    {
      "bufferView": 1,
      "byteOffset": 1666080,
      "componentType": 5126,
      "count": 10680,
      "max": [
        1.0241804122924805,
        1.0255699157714844,
        1.0174498558044434
      ],
      "min": [
        -1.0241804122924805,
        -1.0255699157714844,
        -1.0174400806427002
      ],
      "type": "VEC3"
    },
    {
      "bufferView": 1,
      "byteOffset": 1794240,
      "componentType": 5126,
      "count": 10680,
      "max": [
        1.198390007019043,
        1.200990080833435,
        1.1891398429870605
      ],
      "min": [
        -1.198390007019043,
        -1.2009999752044678,
        -1.1891303062438965
      ],
      "type": "VEC3"
    },
    {
      "bufferView": 1,
      "byteOffset": 1922400,
      "componentType": 5126,
      "count": 10680,
      "max": [
        1.3755693435668945,
        1.3815300464630127,
        1.3755497932434082
      ],
      "min": [
        -1.3755607604980469,
        -1.3815300464630127,
        -1.3755402565002441
      ],
      "type": "VEC3"
    },
    {
      "bufferView": 1,
      "byteOffset": 2050560,
      "componentType": 5126,
      "count": 10680,
      "max": [
        1.5443801879882813,
        1.5608998537063599,
        1.556610107421875
      ],
      "min": [
        -1.5443801879882813,
        -1.5608998537063599,
        -1.556609869003296
      ],
      "type": "VEC3"
    },
    {
      "bufferView": 1,
      "byteOffset": 2178720,
      "componentType": 5126,
      "count": 10680,
      "max": [
        1.7170000076293945,
        1.7343801259994507,
        1.7309699058532715
      ],
      "min": [
        -1.7170000076293945,
        -1.7343699932098389,
        -1.7309701442718506
      ],
      "type": "VEC3"
    },
    {
      "bufferView": 1,
      "byteOffset": 2306880,
      "componentType": 5126,
      "count": 10680,
      "max": [
        1.8689899444580078,
        1.888890027999878,
        1.8907599449157715
      ],
      "min": [
        -1.8689899444580078,
        -1.8889000415802002,
        -1.8907499313354492
      ],
      "type": "VEC3"
    },
    {
      "bufferView": 1,
      "byteOffset": 2435040,
      "componentType": 5126,
      "count": 10680,
      "max": [
        1.9976301193237305,
        2.0333399772644043,
        2.0304698944091797
      ],
      "min": [
        -1.9976301193237305,
        -2.0333399772644043,
        -2.0304601192474365
      ],
      "type": "VEC3"
    },
    {
      "bufferView": 1,
      "byteOffset": 2563200,
      "componentType": 5126,
      "count": 10680,
      "max": [
        2.1177291870117188,
        2.139780044555664,
        2.1407196521759033
      ],
      "min": [
        -2.117720603942871,
        -2.139780044555664,
        -2.1407198905944824
      ],
      "type": "VEC3"
    },
    {
      "bufferView": 1,
      "byteOffset": 2691360,
      "componentType": 5126,
      "count": 10680,
      "max": [
        2.1899499893188477,
        2.2096099853515625,
        2.2078497409820557
      ],
      "min": [
        -2.1899595260620117,
        -2.2096099853515625,
        -2.207850217819214
      ],
      "type": "VEC3"
    },
    {
      "bufferView": 1,
      "byteOffset": 2819520,
      "componentType": 5126,
      "count": 10680,
      "max": [
        2.2151899337768555,
        2.2308497428894043,
        2.2312002182006836
      ],
      "min": [
        -2.2151899337768555,
        -2.2308597564697266,
        -2.2312002182006836
      ],
      "type": "VEC3"
    },
    {
      "bufferView": 1,
      "byteOffset": 2947680,
      "componentType": 5126,
      "count": 10680,
      "max": [
        2.1816892623901367,
        2.199310064315796,
        2.1997199058532715
      ],
      "min": [
        -2.181690216064453,
        -2.1992998123168945,
        -2.199709892272949
      ],
      "type": "VEC3"
    },
    {
      "bufferView": 1,
      "byteOffset": 3075840,
      "componentType": 5126,
      "count": 10680,
      "max": [
        2.0965194702148438,
        2.105189800262451,
        2.102630138397217
      ],
      "min": [
        -2.09652042388916,
        -2.1051902770996094,
        -2.1026298999786377
      ],
      "type": "VEC3"
    },
    {
      "bufferView": 1,
      "byteOffset": 3204000,
      "componentType": 5126,
      "count": 10680,
      "max": [
        1.9386100769042969,
        1.943480134010315,
        1.9401500225067139
      ],
      "min": [
        -1.9385995864868164,
        -1.9434798955917358,
        -1.9401500225067139
      ],
      "type": "VEC3"
    },
    {
      "bufferView": 1,
      "byteOffset": 3332160,
      "componentType": 5126,
      "count": 10680,
      "max": [
        1.7110004425048828,
        1.7139999866485596,
        1.709670066833496
      ],
      "min": [
        -1.7109994888305664,
        -1.7139999866485596,
        -1.7096699476242065
      ],
      "type": "VEC3"
    },
    {
      "bufferView": 1,
      "byteOffset": 3460320,
      "componentType": 5126,
      "count": 10680,
      "max": [
        1.4140996932983398,
        1.416640043258667,
        1.4105300903320313
      ],
      "min": [
        -1.4141101837158203,
        -1.4166499376296997,
        -1.4105199575424194
      ],
      "type": "VEC3"
    },
    {
      "bufferView": 1,
      "byteOffset": 3588480,
      "componentType": 5126,
      "count": 10680,
      "max": [
        1.056570053100586,
        1.0552499294281006,
        1.0447499752044678
      ],
      "min": [
        -1.056570053100586,
        -1.0552501678466797,
        -1.0447499752044678
      ],
      "type": "VEC3"
    },
    {
      "bufferView": 1,
      "byteOffset": 3716640,
      "componentType": 5126,
      "count": 10680,
      "max": [
        0.6440601348876953,
        0.64382004737854,
        0.637910008430481
      ],
      "min": [
        -0.6440601348876953,
        -0.6438300609588623,
        -0.6378999948501587
      ],
      "type": "VEC3"
    },
    {
      "bufferView": 1,
      "byteOffset": 3844800,
      "componentType": 5126,
      "count": 10680,
      "max": [
        0.19250011444091797,
        0.19233012199401855,
        0.18998001515865326
      ],
      "min": [
        -0.19251060485839844,
        -0.19233012199401855,
        -0.18997998535633087
      ],
      "type": "VEC3"
    },
    {
      "bufferView": 1,
      "byteOffset": 3972960,
      "componentType": 5126,
      "count": 10680,
      "max": [
        0.27953052520751953,
        0.27926015853881836,
        0.27504000067710876
      ],
      "min": [
        -0.27952003479003906,
        -0.27925992012023926,
        -0.27504003047943115
      ],
      "type": "VEC3"
    },
    {
      "bufferView": 1,
      "byteOffset": 4101120,
      "componentType": 5126,
      "count": 10680,
      "max": [
        0.7493400573730469,
        0.7494800090789795,
        0.7402799129486084
      ],
      "min": [
        -0.7493400573730469,
        -0.7494900226593018,
        -0.7402701377868652
      ],
      "type": "VEC3"
    },
    {
      "bufferView": 1,
      "byteOffset": 4229280,
      "componentType": 5126,
      "count": 10680,
      "max": [
        1.1907405853271484,
        1.1932801008224487,
        1.1818199157714844
      ],
      "min": [
        -1.190739631652832,
        -1.1932799816131592,
        -1.1818101406097412
      ],
      "type": "VEC3"
    },
    {
      "bufferView": 1,
      "byteOffset": 4357440,
      "componentType": 5126,
      "count": 10680,
      "max": [
        1.5727100372314453,
        1.5870698690414429,
        1.5837697982788086
      ],
      "min": [
        -1.5727195739746094,
        -1.5870698690414429,
        -1.5837697982788086
      ],
      "type": "VEC3"
    },
    {
      "bufferView": 1,
      "byteOffset": 4485600,
      "componentType": 5126,
      "count": 10680,
      "max": [
        1.8828496932983398,
        1.9008700847625732,
        1.903599739074707
      ],
      "min": [
        -1.8828496932983398,
        -1.9008698463439941,
        -1.9035999774932861
      ],
      "type": "VEC3"
    },
    {
      "bufferView": 1,
      "byteOffset": 4613760,
      "componentType": 5126,
      "count": 10680,
      "max": [
        2.1041698455810547,
        2.127150058746338,
        2.127429723739624
      ],
      "min": [
        -2.1041698455810547,
        -2.127150058746338,
        -2.127429962158203
      ],
      "type": "VEC3"
    },
    {
      "bufferView": 1,
      "byteOffset": 4741920,
      "componentType": 5126,
      "count": 10680,
      "max": [
        2.209209442138672,
        2.225980043411255,
        2.226670026779175
      ],
      "min": [
        -2.2092199325561523,
        -2.225980281829834,
        -2.226670265197754
      ],
      "type": "VEC3"
    },
    {
      "bufferView": 1,
      "byteOffset": 4870080,
      "componentType": 5126,
      "count": 10680,
      "max": [
        2.1804399490356445,
        2.197230100631714,
        2.1974799633026123
      ],
      "min": [
        -2.1804399490356445,
        -2.1972298622131348,
        -2.1974799633026123
      ],
      "type": "VEC3"
    },
    {
      "bufferView": 1,
      "byteOffset": 4998240,
      "componentType": 5126,
      "count": 10680,
      "max": [
        2.017669677734375,
        2.032360076904297,
        2.030359983444214
      ],
      "min": [
        -2.017660140991211,
        -2.032360076904297,
        -2.0303499698638916
      ],
      "type": "VEC3"
    },
    {
      "bufferView": 1,
      "byteOffset": 5126400,
      "componentType": 5126,
      "count": 10680,
      "max": [
        1.7369499206542969,
        1.74114990234375,
        1.7371100187301636
      ],
      "min": [
        -1.7369499206542969,
        -1.74114990234375,
        -1.7371100187301636
      ],
      "type": "VEC3"
    },
    {
      "bufferView": 1,
      "byteOffset": 5254560,
      "componentType": 5126,
      "count": 10680,
      "max": [
        1.328740119934082,
        1.3347299098968506,
        1.327839970588684
      ],
      "min": [
        -1.328740119934082,
        -1.3347299098968506,
        -1.3278300762176514
      ],
      "type": "VEC3"
    },
    {
      "bufferView": 1,
      "byteOffset": 5382720,
      "componentType": 5126,
      "count": 10680,
      "max": [
        0.8389205932617188,
        0.8398900032043457,
        0.8333199620246887
      ],
      "min": [
        -0.8389205932617188,
        -0.8398900032043457,
        -0.8333199620246887
      ],
      "type": "VEC3"
    },
    {
      "bufferView": 1,
      "byteOffset": 5510880,
      "componentType": 5126,
      "count": 10680,
      "max": [
        0.2869997024536133,
        0.2867100238800049,
        0.2833000123500824
      ],
      "min": [
        -0.2870006561279297,
        -0.2867100238800049,
        -0.28328996896743774
      ],
      "type": "VEC3"
    },
    {
      "bufferView": 1,
      "byteOffset": 5639040,
      "componentType": 5126,
      "count": 10680,
      "max": [
        0.2876901626586914,
        0.2875101566314697,
        0.28306999802589417
      ],
      "min": [
        -0.2876901626586914,
        -0.2875099182128906,
        -0.28307002782821655
      ],
      "type": "VEC3"
    },
    {
      "bufferView": 1,
      "byteOffset": 5767200,
      "componentType": 5126,
      "count": 10680,
      "max": [
        0.843510627746582,
        0.8441600799560547,
        0.8354599475860596
      ],
      "min": [
        -0.843510627746582,
        -0.8441600799560547,
        -0.8354599475860596
      ],
      "type": "VEC3"
    },
    {
      "bufferView": 1,
      "byteOffset": 5895360,
      "componentType": 5126,
      "count": 10680,
      "max": [
        1.339559555053711,
        1.3450500965118408,
        1.338129997253418
      ],
      "min": [
        -1.3395605087280273,
        -1.3450499773025513,
        -1.3381202220916748
      ],
      "type": "VEC3"
    },
    {
      "bufferView": 1,
      "byteOffset": 6023520,
      "componentType": 5126,
      "count": 10680,
      "max": [
        1.739079475402832,
        1.7582401037216187,
        1.754580020904541
      ],
      "min": [
        -1.739079475402832,
        -1.758239984512329,
        -1.7545802593231201
      ],
      "type": "VEC3"
    },
    {
      "bufferView": 1,
      "byteOffset": 6151680,
      "componentType": 5126,
      "count": 10680,
      "max": [
        2.0193700790405273,
        2.054409980773926,
        2.0535202026367188
      ],
      "min": [
        -2.0193700790405273,
        -2.054409980773926,
        -2.0535199642181396
      ],
      "type": "VEC3"
    },
    {
      "bufferView": 1,
      "byteOffset": 6279840,
      "componentType": 5126,
      "count": 10680,
      "max": [
        2.18988037109375,
        2.2095301151275635,
        2.2077698707580566
      ],
      "min": [
        -2.189889907836914,
        -2.2095298767089844,
        -2.2077698707580566
      ],
      "type": "VEC3"
    },
    {
      "bufferView": 1,
      "byteOffset": 6408000,
      "componentType": 5126,
      "count": 10680,
      "max": [
        2.1969499588012695,
        2.2170801162719727,
        2.2159600257873535
      ],
      "min": [
        -2.1969499588012695,
        -2.2170701026916504,
        -2.2159600257873535
      ],
      "type": "VEC3"
    },
    {
      "bufferView": 1,
      "byteOffset": 6536160,
      "componentType": 5126,
      "count": 10680,
      "max": [
        2.0684595108032227,
        2.078000068664551,
        2.0772900581359863
      ],
      "min": [
        -2.068460464477539,
        -2.078000068664551,
        -2.077280044555664
      ],
      "type": "VEC3"
    },
    {
      "bufferView": 1,
      "byteOffset": 6664320,
      "componentType": 5126,
      "count": 10680,
      "max": [
        1.8014192581176758,
        1.804029941558838,
        1.7991299629211426
      ],
      "min": [
        -1.8014202117919922,
        -1.8040297031402588,
        -1.7991399765014648
      ],
      "type": "VEC3"
    },
    {
      "bufferView": 1,
      "byteOffset": 6792480,
      "componentType": 5126,
      "count": 10680,
      "max": [
        1.4149999618530273,
        1.4175000190734863,
        1.4114000797271729
      ],
      "min": [
        -1.4149999618530273,
        -1.417509913444519,
        -1.4113999605178833
      ],
      "type": "VEC3"
    },
    {
      "bufferView": 1,
      "byteOffset": 6920640,
      "componentType": 5126,
      "count": 10680,
      "max": [
        0.9460105895996094,
        0.9447698593139648,
        0.9376499652862549
      ],
      "min": [
        -0.9460105895996094,
        -0.944770097732544,
        -0.9376499652862549
      ],
      "type": "VEC3"
    },
    {
      "bufferView": 1,
      "byteOffset": 7048800,
      "componentType": 5126,
      "count": 10680,
      "max": [
        0.42114925384521484,
        0.4208099842071533,
        0.414760023355484
      ],
      "min": [
        -0.42115020751953125,
        -0.4208099842071533,
        -0.4147599935531616
      ],
      "type": "VEC3"
    },
    {
      "bufferView": 1,
      "byteOffset": 7176960,
      "componentType": 5126,
      "count": 10680,
      "max": [
        0.12139034271240234,
        0.12108993530273438,
        0.1194399893283844
      ],
      "min": [
        -0.12139034271240234,
        -0.12108993530273438,
        -0.11943000555038452
      ],
      "type": "VEC3"
    },
    {
      "bufferView": 1,
      "byteOffset": 7305120,
      "componentType": 5126,
      "count": 10680,
      "max": [
        0.6472597122192383,
        0.6476700305938721,
        0.6365599632263184
      ],
      "min": [
        -0.6472597122192383,
        -0.6476798057556152,
        -0.6365599632263184
      ],
      "type": "VEC3"
    },
    {
      "bufferView": 1,
      "byteOffset": 7433280,
      "componentType": 5126,
      "count": 10680,
      "max": [
        1.1252803802490234,
        1.1280999183654785,
        1.11899995803833
      ],
      "min": [
        -1.125279426574707,
        -1.1280999183654785,
        -1.118990182876587
      ],
      "type": "VEC3"
    },
    {
      "bufferView": 1,
      "byteOffset": 7561440,
      "componentType": 5126,
      "count": 10680,
      "max": [
        1.5234794616699219,
        1.540850043296814,
        1.5358400344848633
      ],
      "min": [
        -1.5234804153442383,
        -1.5408499240875244,
        -1.5358397960662842
      ],
      "type": "VEC3"
    },
    {
      "bufferView": 1,
      "byteOffset": 7689600,
      "componentType": 5126,
      "count": 10680,
      "max": [
        1.8418798446655273,
        1.8639700412750244,
        1.8641700744628906
      ],
      "min": [
        -1.8418798446655273,
        -1.8639800548553467,
        -1.8641598224639893
      ],
      "type": "VEC3"
    },
    {
      "bufferView": 1,
      "byteOffset": 7817760,
      "componentType": 5126,
      "count": 10680,
      "max": [
        2.064939498901367,
        2.0926198959350586,
        2.090700149536133
      ],
      "min": [
        -2.064929962158203,
        -2.0926201343536377,
        -2.0906901359558105
      ],
      "type": "VEC3"
    },
    {
      "bufferView": 1,
      "byteOffset": 7945920,
      "componentType": 5126,
      "count": 10680,
      "max": [
        2.190999984741211,
        2.2107200622558594,
        2.2092697620391846
      ],
      "min": [
        -2.191009521484375,
        -2.2107198238372803,
        -2.2092702388763428
      ],
      "type": "VEC3"
    },
    {
      "bufferView": 1,
      "byteOffset": 8074080,
      "componentType": 5126,
      "count": 10680,
      "max": [
        2.2102203369140625,
        2.2259397506713867,
        2.226490020751953
      ],
      "min": [
        -2.2102203369140625,
        -2.225949764251709,
        -2.2264997959136963
      ],
      "type": "VEC3"
    },
    {
      "bufferView": 1,
      "byteOffset": 8202240,
      "componentType": 5126,
      "count": 10680,
      "max": [
        2.1337594985961914,
        2.143630266189575,
        2.1416797637939453
      ],
      "min": [
        -2.133760452270508,
        -2.1436402797698975,
        -2.1416800022125244
      ],
      "type": "VEC3"
    },
    {
      "bufferView": 1,
      "byteOffset": 8330400,
      "componentType": 5126,
      "count": 10680,
      "max": [
        1.9703893661499023,
        1.978890061378479,
        1.9768999814987183
      ],
      "min": [
        -1.9703903198242188,
        -1.9788899421691895,
        -1.9768999814987183
      ],
      "type": "VEC3"
    },
    {
      "bufferView": 1,
      "byteOffset": 8458560,
      "componentType": 5126,
      "count": 10680,
      "max": [
        1.7376794815063477,
        1.7418498992919922,
        1.737820029258728
      ],
      "min": [
        -1.737680435180664,
        -1.7418500185012817,
        -1.737820029258728
      ],
      "type": "VEC3"
    },
    {
      "bufferView": 1,
      "byteOffset": 8586720,
      "componentType": 5126,
      "count": 10680,
      "max": [
        1.4486799240112305,
        1.4498999118804932,
        1.444159984588623
      ],
      "min": [
        -1.4486799240112305,
        -1.4499099254608154,
        -1.444159984588623
      ],
      "type": "VEC3"
    },
    {
      "bufferView": 1,
      "byteOffset": 8714880,
      "componentType": 5126,
      "count": 10680,
      "max": [
        1.1206903457641602,
        1.1192901134490967,
        1.1102999448776245
      ],
      "min": [
        -1.1206903457641602,
        -1.119300127029419,
        -1.1102999448776245
      ],
      "type": "VEC3"
    },
    {
      "bufferView": 1,
      "byteOffset": 8843040,
      "componentType": 5126,
      "count": 10680,
      "max": [
        0.764979362487793,
        0.7672898769378662,
        0.7608999609947205
      ],
      "min": [
        -0.7649803161621094,
        -0.7672898769378662,
        -0.7609000205993652
      ],
      "type": "VEC3"
    },
    {
      "bufferView": 1,
      "byteOffset": 8971200,
      "componentType": 5126,
      "count": 10680,
      "max": [
        0.4084491729736328,
        0.40797996520996094,
        0.4023300111293793
      ],
      "min": [
        -0.40844058990478516,
        -0.40796995162963867,
        -0.40233004093170166
      ],
      "type": "VEC3"
    },
    {
      "bufferView": 1,
      "byteOffset": 9099360,
      "componentType": 5126,
      "count": 10680,
      "max": [
        0.052979469299316406,
        0.05289006233215332,
        0.05224001407623291
      ],
      "min": [
        -0.05298042297363281,
        -0.05289006233215332,
        -0.052239999175071716
      ],
      "type": "VEC3"
    },
    {
      "bufferView": 1,
      "byteOffset": 9227520,
      "componentType": 5126,
      "count": 10680,
      "max": [
        0.28715038299560547,
        0.2869701385498047,
        0.28254997730255127
      ],
      "min": [
        -0.28715038299560547,
        -0.2869699001312256,
        -0.2825400233268738
      ],
      "type": "VEC3"
    },
    {
      "bufferView": 1,
      "byteOffset": 9355680,
      "componentType": 5126,
      "count": 10680,
      "max": [
        0.6036100387573242,
        0.6041100025177002,
        0.5941100120544434
      ],
      "min": [
        -0.6036100387573242,
        -0.6041100025177002,
        -0.5941100120544434
      ],
      "type": "VEC3"
    },
    {
      "bufferView": 1,
      "byteOffset": 9483840,
      "componentType": 5126,
      "count": 10680,
      "max": [
        0.8919506072998047,
        0.8935198783874512,
        0.8844399452209473
      ],
      "min": [
        -0.8919506072998047,
        -0.893510103225708,
        -0.8844399452209473
      ],
      "type": "VEC3"
    },
    {
      "bufferView": 1,
      "byteOffset": 9612000,
      "componentType": 5126,
      "count": 10680,
      "max": [
        1.147740364074707,
        1.1499301195144653,
        1.1405997276306152
      ],
      "min": [
        -1.147749900817871,
        -1.1499300003051758,
        -1.1405901908874512
      ],
      "type": "VEC3"
    },
    {
      "bufferView": 1,
      "byteOffset": 9740160,
      "componentType": 5126,
      "count": 10680,
      "max": [
        1.3696794509887695,
        1.3755600452423096,
        1.369420051574707
      ],
      "min": [
        -1.3696708679199219,
        -1.3755600452423096,
        -1.3694202899932861
      ],
      "type": "VEC3"
    },
    {
      "bufferView": 1,
      "byteOffset": 9868320,
      "componentType": 5126,
      "count": 10680,
      "max": [
        1.5517301559448242,
        1.567710041999817,
        1.5636701583862305
      ],
      "min": [
        -1.5517396926879883,
        -1.5677099227905273,
        -1.5636699199676514
      ],
      "type": "VEC3"
    },
    {
      "bufferView": 1,
      "byteOffset": 9996480,
      "componentType": 5126,
      "count": 10680,
      "max": [
        1.712479591369629,
        1.729509949684143,
        1.7261600494384766
      ],
      "min": [
        -1.712479591369629,
        -1.7295100688934326,
        -1.7261602878570557
      ],
      "type": "VEC3"
    },
    {
      "bufferView": 1,
      "byteOffset": 10124640,
      "componentType": 5126,
      "count": 10680,
      "max": [
        1.8373298645019531,
        1.8592500686645508,
        1.8591499328613281
      ],
      "min": [
        -1.8373298645019531,
        -1.8592498302459717,
        -1.8591399192810059
      ],
      "type": "VEC3"
    },
    {
      "bufferView": 1,
      "byteOffset": 10252800,
      "componentType": 5126,
      "count": 10680,
      "max": [
        1.9390497207641602,
        1.9635200500488281,
        1.9578999280929565
      ],
      "min": [
        -1.9390497207641602,
        -1.9635300636291504,
        -1.9579100608825684
      ],
      "type": "VEC3"
    },
    {
      "bufferView": 1,
      "byteOffset": 10380960,
      "componentType": 5126,
      "count": 10680,
      "max": [
        2.012209892272949,
        2.0488200187683105,
        2.047379970550537
      ],
      "min": [
        -2.012209892272949,
        -2.048830032348633,
        -2.047379970550537
      ],
      "type": "VEC3"
    },
    {
      "bufferView": 1,
      "byteOffset": 10509120,
      "componentType": 5126,
      "count": 10680,
      "max": [
        2.085049629211426,
        2.110489845275879,
        2.1085898876190186
      ],
      "min": [
        -2.0850400924682617,
        -2.1105000972747803,
        -2.1085898876190186
      ],
      "type": "VEC3"
    },
    {
      "bufferView": 1,
      "byteOffset": 10637280,
      "componentType": 5126,
      "count": 10680,
      "max": [
        2.1316699981689453,
        2.154010057449341,
        2.1532599925994873
      ],
      "min": [
        -2.1316795349121094,
        -2.15401029586792,
        -2.1532599925994873
      ],
      "type": "VEC3"
    },
    {
      "bufferView": 1,
      "byteOffset": 10765440,
      "componentType": 5126,
      "count": 10680,
      "max": [
        2.1616601943969727,
        2.1847901344299316,
        2.1806299686431885
      ],
      "min": [
        -2.1616697311401367,
        -2.1847901344299316,
        -2.1806299686431885
      ],
      "type": "VEC3"
    },
    {
      "bufferView": 1,
      "byteOffset": 10893600,
      "componentType": 5126,
      "count": 10680,
      "max": [
        2.1857500076293945,
        2.205170154571533,
        2.203929901123047
      ],
      "min": [
        -2.1857595443725586,
        -2.205169916152954,
        -2.2039198875427246
      ],
      "type": "VEC3"
    },
    {
      "bufferView": 1,
      "byteOffset": 11021760,
      "componentType": 5126,
      "count": 10680,
      "max": [
        2.1973800659179688,
        2.218140125274658,
        2.218640089035034
      ],
      "min": [
        -2.197389602661133,
        -2.2181501388549805,
        -2.218640089035034
      ],
      "type": "VEC3"
    },
    {
      "bufferView": 1,
      "byteOffset": 11149920,
      "componentType": 5126,
      "count": 10680,
      "max": [
        2.2074499130249023,
        2.22514009475708,
        2.225799798965454
      ],
      "min": [
        -2.207460403442383,
        -2.2251501083374023,
        -2.225800037384033
      ],
      "type": "VEC3"
    },
    {
      "bufferView": 1,
      "byteOffset": 11278080,
      "componentType": 5126,
      "count": 10680,
      "max": [
        2.2120800018310547,
        2.2280499935150146,
        2.2282400131225586
      ],
      "min": [
        -2.2120800018310547,
        -2.2280499935150146,
        -2.2282400131225586
      ],
      "type": "VEC3"
    },
    {
      "bufferView": 1,
      "byteOffset": 11406240,
      "componentType": 5126,
      "count": 10680,
      "max": [
        2.213319778442383,
        2.229609966278076,
        2.2309298515319824
      ],
      "min": [
        -2.2133302688598633,
        -2.229609966278076,
        -2.2309200763702393
      ],
      "type": "VEC3"
    },
    {
      "bufferView": 1,
      "byteOffset": 11534400,
      "componentType": 5126,
      "count": 10680,
      "max": [
        2.213250160217285,
        2.229719877243042,
        2.2317099571228027
      ],
      "min": [
        -2.2132606506347656,
        -2.229710102081299,
        -2.2317099571228027
      ],
      "type": "VEC3"
    },
    {
      "bufferView": 1,
      "byteOffset": 11662560,
      "componentType": 5126,
      "count": 10680,
      "max": [
        2.213089942932129,
        2.229609966278076,
        2.23183012008667
      ],
      "min": [
        -2.2131004333496094,
        -2.229609966278076,
        -2.23183012008667
      ],
      "type": "VEC3"
    },
    {
      "bufferView": 0,
      "componentType": 5125,
      "count": 56160,
      "type": "SCALAR"
    },
    {
      "bufferView": 2,
      "componentType": 5126,
      "count": 91,
      "max": [
        3.75
      ],
      "min": [
        0.0
      ],
      "type": "SCALAR"
    },
    {
      "bufferView": 2,
      "byteOffset": 364,
      "componentType": 5126,
      "count": 8190,
      "max": [
        1.0
      ],
      "min": [
        0.0
      ],
      "type": "SCALAR"
    }
  ],
  "animations": [
    {
      "channels": [
        {
          "sampler": 0,
          "target": {
            "node": 3,
            "path": "weights"
          }
        }
      ],
      "name": "KeyAction",
      "samplers": [
        {
          "input": 93,
          "interpolation": "LINEAR",
          "output": 94
        }
      ]
    }
  ],
  "asset": {
    "extras": {
      "author": "KageG (https://sketchfab.com/KageG)",
      "license": "CC-BY-4.0 (http://creativecommons.org/licenses/by/4.0/)",
      "source": "https://sketchfab.com/3d-models/dna-animation-144ed9c527b3415b9bbc0418d0233fdc",
      "title": "DNA Animation"
    },
    "generator": "Sketchfab-12.68.0",
    "version": "2.0"
  },
  "bufferViews": [
    {
      "buffer": 0,
      "byteLength": 224640,
      "name": "floatBufferViews",
      "target": 34963
    },
    {
      "buffer": 0,
      "byteLength": 11790720,
      "byteOffset": 224640,
      "byteStride": 12,
      "name": "floatBufferViews",
      "target": 34962
    },
    {
      "buffer": 0,
      "byteLength": 33124,
      "byteOffset": 12015360,
      "name": "floatBufferViews"
    }
  ],
  "buffers": [
    {
      "byteLength": 12048484,
      "uri": "scene.bin"
    }
  ],
  "materials": [
    {
      "doubleSided": true,
      "name": "material",
      "pbrMetallicRoughness": {
        "baseColorFactor": [
          0.8014945267390895,
          0.009462236538130765,
          0.009462236538130765,
          1.0
        ],
        "roughnessFactor": 0.43
      }
    }
  ],
  "meshes": [
    {
      "name": "Cylinder_0",
      "primitives": [
        {
          "attributes": {
            "NORMAL": 1,
            "POSITION": 0
          },
          "indices": 92,
          "material": 0,
          "mode": 4,
          "targets": [
            {
              "POSITION": 2
            },
            {
              "POSITION": 3
            },
            {
              "POSITION": 4
            },
            {
              "POSITION": 5
            },
            {
              "POSITION": 6
            },
            {
              "POSITION": 7
            },
            {
              "POSITION": 8
            },
            {
              "POSITION": 9
            },
            {
              "POSITION": 10
            },
            {
              "POSITION": 11
            },
            {
              "POSITION": 12
            },
            {
              "POSITION": 13
            },
            {
              "POSITION": 14
            },
            {
              "POSITION": 15
            },
            {
              "POSITION": 16
            },
            {
              "POSITION": 17
            },
            {
              "POSITION": 18
            },
            {
              "POSITION": 19
            },
            {
              "POSITION": 20
            },
            {
              "POSITION": 21
            },
            {
              "POSITION": 22
            },
            {
              "POSITION": 23
            },
            {
              "POSITION": 24
            },
            {
              "POSITION": 25
            },
            {
              "POSITION": 26
            },
            {
              "POSITION": 27
            },
            {
              "POSITION": 28
            },
            {
              "POSITION": 29
            },
            {
              "POSITION": 30
            },
            {
              "POSITION": 31
            },
            {
              "POSITION": 32
            },
            {
              "POSITION": 33
            },
            {
              "POSITION": 34
            },
            {
              "POSITION": 35
            },
            {
              "POSITION": 36
            },
            {
              "POSITION": 37
            },
            {
              "POSITION": 38
            },
            {
              "POSITION": 39
            },
            {
              "POSITION": 40
            },
            {
              "POSITION": 41
            },
            {
              "POSITION": 42
            },
            {
              "POSITION": 43
            },
            {
              "POSITION": 44
            },
            {
              "POSITION": 45
            },
            {
              "POSITION": 46
            },
            {
              "POSITION": 47
            },
            {
              "POSITION": 48
            },
            {
              "POSITION": 49
            },
            {
              "POSITION": 50
            },
            {
              "POSITION": 51
            },
            {
              "POSITION": 52
            },
            {
              "POSITION": 53
            },
            {
              "POSITION": 54
            },
            {
              "POSITION": 55
            },
            {
              "POSITION": 56
            },
            {
              "POSITION": 57
            },
            {
              "POSITION": 58
            },
            {
              "POSITION": 59
            },
            {
              "POSITION": 60
            },
            {
              "POSITION": 61
            },
            {
              "POSITION": 62
            },
            {
              "POSITION": 63
            },
            {
              "POSITION": 64
            },
            {
              "POSITION": 65
            },
            {
              "POSITION": 66
            },
            {
              "POSITION": 67
            },
            {
              "POSITION": 68
            },
            {
              "POSITION": 69
            },
            {
              "POSITION": 70
            },
            {
              "POSITION": 71
            },
            {
              "POSITION": 72
            },
            {
              "POSITION": 73
            },
            {
              "POSITION": 74
            },
            {
              "POSITION": 75
            },
            {
              "POSITION": 76
            },
            {
              "POSITION": 77
            },
            {
              "POSITION": 78
            },
            {
              "POSITION": 79
            },
            {
              "POSITION": 80
            },
            {
              "POSITION": 81
            },
            {
              "POSITION": 82
            },
            {
              "POSITION": 83
            },
            {
              "POSITION": 84
            },
            {
              "POSITION": 85
            },
            {
              "POSITION": 86
            },
            {
              "POSITION": 87
            },
            {
              "POSITION": 88
            },
            {
              "POSITION": 89
            },
            {
              "POSITION": 90
            },
            {
              "POSITION": 91
            }
          ]
        }
      ],
      "weights": [
        0.0,
        0.0,
        0.0,
        0.0,
        0.0,
        0.0,
        0.0,
        0.0,
        0.0,
        0.0,
        0.0,
        0.0,
        0.0,
        0.0,
        0.0,
        0.0,
        0.0,
        0.0,
        0.0,
        0.0,
        0.0,
        0.0,
        0.0,
        0.0,
        0.0,
        0.0,
        0.0,
        0.0,
        0.0,
        0.0,
        0.0,
        0.0,
        0.0,
        0.0,
        0.0,
        0.0,
        0.0,
        0.0,
        0.0,
        0.0,
        0.0,
        0.0,
        0.0,
        0.0,
        0.0,
        0.0,
        0.0,
        0.0,
        0.0,
        0.0,
        0.0,
        0.0,
        0.0,
        0.0,
        0.0,
        0.0,
        0.0,
        0.0,
        0.0,
        0.0,
        0.0,
        0.0,
        0.0,
        0.0,
        0.0,
        0.0,
        0.0,
        0.0,
        0.0,
        0.0,
        0.0,
        0.0,
        0.0,
        0.0,
        0.0,
        0.0,
        0.0,
        0.0,
        0.0,
        0.0,
        0.0,
        0.0,
        0.0,
        0.0,
        0.0,
        0.0,
        0.0,
        0.0,
        0.0,
        0.0
      ]
    }
  ],
  "nodes": [
    {
      "children": [
        1
      ],
      "matrix": [
        1.0,
        0.0,
        0.0,
        0.0,
        0.0,
        2.220446049250313e-16,
        -1.0,
        0.0,
        0.0,
        1.0,
        2.220446049250313e-16,
        0.0,
        0.0,
        0.0,
        0.0,
        1.0
      ],
      "name": "Sketchfab_model"
    },
    {
      "children": [
        2
      ],
      "name": "Root"
    },
    {
      "children": [
        3
      ],
      "name": "Cylinder"
    },
    {
      "mesh": 0,
      "name": "Cylinder_0"
    }
  ],
  "scene": 0,
  "scenes": [
    {
      "name": "Sketchfab_Scene",
      "nodes": [
        0
      ]
    }
  ]
}
